HIERARCHY
ROOT Hips
{
    OFFSET   0.000000   0.000000   0.000000
    CHANNELS 6 Xposition Yposition Zposition Zrotation Xrotation Yrotation
    JOINT Chest
    {
        OFFSET   0.000000   8.007230   0.000000
        CHANNELS 3 Zrotation Xrotation Yrotation
        JOINT Chest2
        {
            OFFSET   0.000000  22.077100   0.000000
            CHANNELS 3 Zrotation Xrotation Yrotation
            JOINT Neck
            {
                OFFSET   0.000000  23.254800  -0.000021
                CHANNELS 3 Zrotation Xrotation Yrotation
                JOINT Head
                {
                    OFFSET   0.000000  14.370000   1.956610
                    CHANNELS 3 Zrotation Xrotation Yrotation
                    End Site
                    {
                        OFFSET   0.000000  19.566000   0.000000
                    }
                }
            }
            JOINT LeftCollar
            {
                OFFSET   3.911900  19.017000  -0.467063
                CHANNELS 3 Zrotation Xrotation Yrotation
                JOINT LeftShoulder
                {
                    OFFSET  10.383700   0.000000   0.000000
                    CHANNELS 3 Zrotation Xrotation Yrotation
                    JOINT LeftElbow
                    {
                        OFFSET  26.662100   0.001529   0.000325
                        CHANNELS 3 Zrotation Xrotation Yrotation
                        JOINT LeftWrist
                        {
                            OFFSET  28.869000  -0.000011  -0.000096
                            CHANNELS 3 Zrotation Xrotation Yrotation
                            JOINT LeftFinger0
                            {
                                OFFSET   2.044650  -2.323460   3.252850
                                CHANNELS 3 Zrotation Xrotation Yrotation
                                JOINT LeftFinger01
                                {
                                    OFFSET   3.088130   0.000000   0.000000
                                    CHANNELS 3 Zrotation Xrotation Yrotation
                                    JOINT LeftFinger02
                                    {
                                        OFFSET   2.639460   0.000000   0.000000
                                        CHANNELS 3 Zrotation Xrotation Yrotation
                                        End Site
                                        {
                                            OFFSET   2.582190   0.000000   0.000000
                                        }
                                    }
                                }
                            }
                            JOINT LeftFinger1
                            {
                                OFFSET   8.364480   0.000000   3.252850
                                CHANNELS 3 Zrotation Xrotation Yrotation
                                JOINT LeftFinger11
                                {
                                    OFFSET   4.646930   0.000000   0.000000
                                    CHANNELS 3 Zrotation Xrotation Yrotation
                                    JOINT LeftFinger12
                                    {
                                        OFFSET   2.323460   0.000000   0.000000
                                        CHANNELS 3 Zrotation Xrotation Yrotation
                                        End Site
                                        {
                                            OFFSET   2.273050   0.000000   0.000000
                                        }
                                    }
                                }
                            }
                            JOINT LeftFinger2
                            {
                                OFFSET   8.364480   0.000016   1.078090
                                CHANNELS 3 Zrotation Xrotation Yrotation
                                JOINT LeftFinger21
                                {
                                    OFFSET   5.111620   0.000000   0.000000
                                    CHANNELS 3 Zrotation Xrotation Yrotation
                                    JOINT LeftFinger22
                                    {
                                        OFFSET   2.788160   0.000017   0.000000
                                        CHANNELS 3 Zrotation Xrotation Yrotation
                                        End Site
                                        {
                                            OFFSET   2.727660   0.000000   0.000000
                                        }
                                    }
                                }
                            }
                            JOINT LeftFinger3
                            {
                                OFFSET   7.899780   0.000015  -1.078090
                                CHANNELS 3 Zrotation Xrotation Yrotation
                                JOINT LeftFinger31
                                {
                                    OFFSET   4.646920   0.000000   0.000000
                                    CHANNELS 3 Zrotation Xrotation Yrotation
                                    JOINT LeftFinger32
                                    {
                                        OFFSET   2.323470   0.000000   0.000000
                                        CHANNELS 3 Zrotation Xrotation Yrotation
                                        End Site
                                        {
                                            OFFSET   2.273050   0.000000   0.000000
                                        }
                                    }
                                }
                            }
                            JOINT LeftFinger4
                            {
                                OFFSET   7.435090   0.000000  -3.252850
                                CHANNELS 3 Zrotation Xrotation Yrotation
                                JOINT LeftFinger41
                                {
                                    OFFSET   3.717550   0.000000   0.000000
                                    CHANNELS 3 Zrotation Xrotation Yrotation
                                    JOINT LeftFinger42
                                    {
                                        OFFSET   1.858760   0.000000   0.000000
                                        CHANNELS 3 Zrotation Xrotation Yrotation
                                        End Site
                                        {
                                            OFFSET   1.818440   0.000000   0.000000
                                        }
                                    }
                                }
                            }
                        }
                    }
                }
            }
            JOINT RightCollar
            {
                OFFSET  -3.911900  19.017000  -0.467062
                CHANNELS 3 Zrotation Xrotation Yrotation
                JOINT RightShoulder
                {
                    OFFSET -10.383700   0.000015   0.000000
                    CHANNELS 3 Zrotation Xrotation Yrotation
                    JOINT RightElbow
                    {
                        OFFSET -26.662100   0.001341   0.000385
                        CHANNELS 3 Zrotation Xrotation Yrotation
                        JOINT RightWrist
                        {
                            OFFSET -28.869000   0.000025  -0.000080
                            CHANNELS 3 Zrotation Xrotation Yrotation
                            JOINT RightFinger0
                            {
                                OFFSET  -2.044650  -2.323490   3.252850
                                CHANNELS 3 Zrotation Xrotation Yrotation
                                JOINT RightFinger01
                                {
                                    OFFSET  -3.088130   0.000000   0.000000
                                    CHANNELS 3 Zrotation Xrotation Yrotation
                                    JOINT RightFinger02
                                    {
                                        OFFSET  -2.639460   0.000000   0.000000
                                        CHANNELS 3 Zrotation Xrotation Yrotation
                                        End Site
                                        {
                                            OFFSET  -2.582190   0.000000   0.000000
                                        }
                                    }
                                }
                            }
                            JOINT RightFinger1
                            {
                                OFFSET  -8.364480   0.000000   3.252850
                                CHANNELS 3 Zrotation Xrotation Yrotation
                                JOINT RightFinger11
                                {
                                    OFFSET  -4.646930   0.000000   0.000000
                                    CHANNELS 3 Zrotation Xrotation Yrotation
                                    JOINT RightFinger12
                                    {
                                        OFFSET  -2.323470   0.000000   0.000000
                                        CHANNELS 3 Zrotation Xrotation Yrotation
                                        End Site
                                        {
                                            OFFSET  -2.273050   0.000000   0.000000
                                        }
                                    }
                                }
                            }
                            JOINT RightFinger2
                            {
                                OFFSET  -8.364480   0.000000   1.078090
                                CHANNELS 3 Zrotation Xrotation Yrotation
                                JOINT RightFinger21
                                {
                                    OFFSET  -5.111610   0.000000   0.000000
                                    CHANNELS 3 Zrotation Xrotation Yrotation
                                    JOINT RightFinger22
                                    {
                                        OFFSET  -2.788160   0.000000   0.000000
                                        CHANNELS 3 Zrotation Xrotation Yrotation
                                        End Site
                                        {
                                            OFFSET  -2.727660   0.000000   0.000000
                                        }
                                    }
                                }
                            }
                            JOINT RightFinger3
                            {
                                OFFSET  -7.899780   0.000000  -1.078090
                                CHANNELS 3 Zrotation Xrotation Yrotation
                                JOINT RightFinger31
                                {
                                    OFFSET  -4.646920   0.000000   0.000000
                                    CHANNELS 3 Zrotation Xrotation Yrotation
                                    JOINT RightFinger32
                                    {
                                        OFFSET  -2.323470   0.000000   0.000000
                                        CHANNELS 3 Zrotation Xrotation Yrotation
                                        End Site
                                        {
                                            OFFSET  -2.273050   0.000000   0.000000
                                        }
                                    }
                                }
                            }
                            JOINT RightFinger4
                            {
                                OFFSET  -7.435090   0.000000  -3.252850
                                CHANNELS 3 Zrotation Xrotation Yrotation
                                JOINT RightFinger41
                                {
                                    OFFSET  -3.717550   0.000000   0.000000
                                    CHANNELS 3 Zrotation Xrotation Yrotation
                                    JOINT RightFinger42
                                    {
                                        OFFSET  -1.858770   0.000000   0.000000
                                        CHANNELS 3 Zrotation Xrotation Yrotation
                                        End Site
                                        {
                                            OFFSET  -1.818440   0.000000   0.000000
                                        }
                                    }
                                }
                            }
                        }
                    }
                }
            }
        }
    }
    JOINT LeftHip
    {
        OFFSET   9.783010   0.000000   0.000000
        CHANNELS 3 Zrotation Xrotation Yrotation
        JOINT LeftKnee
        {
            OFFSET   0.000070 -41.789100   0.000028
            CHANNELS 3 Zrotation Xrotation Yrotation
            JOINT LeftAnkle
            {
                OFFSET   0.000087 -41.133200  -0.000100
                CHANNELS 3 Zrotation Xrotation Yrotation
                JOINT LeftToe
                {
                    OFFSET   0.000000  -6.358960  14.674500
                    CHANNELS 3 Zrotation Xrotation Yrotation
                    End Site
                    {
                        OFFSET   0.000000   0.000000   3.913200
                    }
                }
            }
        }
    }
    JOINT RightHip
    {
        OFFSET  -9.783020   0.000000   0.000000
        CHANNELS 3 Zrotation Xrotation Yrotation
        JOINT RightKnee
        {
            OFFSET   0.000044 -41.789100  -0.000870
            CHANNELS 3 Zrotation Xrotation Yrotation
            JOINT RightAnkle
            {
                OFFSET  -0.000090 -41.133200  -0.000245
                CHANNELS 3 Zrotation Xrotation Yrotation
                JOINT RightToe
                {
                    OFFSET   0.000000  -6.358960  14.674500
                    CHANNELS 3 Zrotation Xrotation Yrotation
                    End Site
                    {
                        OFFSET   0.000000   0.000000   3.913200
                    }
                }
            }
        }
    }
}
MOTION
Frames: 5
Frame Time:   0.016667
 -2.483730  89.363300   0.116689  -0.361104  -4.753800  -5.973600   1.982140   4.732490  -1.912780   4.143280   9.392860  -4.009600   7.179260   2.179190  -0.274436  11.839200   4.211550  -8.094720  -4.115570   4.375850   7.560880 -78.582600  11.354700  -6.220070  -1.123860   3.516550 -17.439400  10.534300  -2.180720  -2.351740  42.563200  37.740000 -52.626600 -32.554900   0.025865   0.016581 -11.277400   0.012963  -0.000697 -36.338000  -0.854584   1.161550 -29.738200  -0.012359  -0.018092 -20.816700   0.002583  -0.014950 -32.740700  -3.673190   5.689860 -49.385000  -0.013890  -0.024299 -32.890400   0.001380  -0.015967 -28.569000  -3.998940   7.298290 -43.241400  -0.016043  -0.022302 -28.798800  -0.007322  -0.018113 -36.581200  -4.979130   6.670190 -55.307400  -0.013506  -0.037918 -36.834700   0.000933  -0.026173   5.275170   3.780360   5.054450  66.980100 -25.548900  38.348200  -1.362150 -27.949200 110.455000  65.566400 -35.290000  58.612700 -58.904000  36.512100  63.038100 -24.044000  -0.002028  -0.004129 -15.000000   0.001421  -0.004493  88.996200   5.000710   0.087478 100.873000  -0.000932  -0.001741  75.654700  -0.001767   0.008756  89.000000   0.009937  -0.002532 100.487000   0.003630  -0.004254  75.365300  -0.002764  -0.005395  88.996200  -5.000820  -0.087494 101.013000  -0.003170  -0.003168  75.759800  -0.002470   0.002350  88.980500 -10.001700  -0.179518 110.000000  -0.006738  -0.003213  80.000000   0.003843   0.003882   2.063720   7.604450   0.084076   0.125546   2.563170  14.410700  -2.589170  -4.479380  -1.069820   0.000000   0.000000  -0.000000   0.633626   8.580660  -2.966940   2.058480   0.249149 -11.293200  -0.087492  -3.687420  11.156000  -0.000000   0.000000   0.000000
 -2.462770  89.367500   0.158124  -0.361393  -4.747670  -5.984700   1.980780   4.708290  -1.911240   4.139510   9.344680  -4.005930   7.178570   2.203420  -0.277395  11.837400   4.258530  -8.100370  -4.129360   4.414330   7.555800 -78.558300  11.433300  -6.292180  -1.148480   3.465740 -17.231600  10.541300  -2.032770  -2.351530  42.455600  37.565900 -52.469200 -32.533500   0.025922   0.016584 -11.266700   0.013003  -0.000698 -36.323100  -0.843354   1.146930 -29.725800  -0.012261  -0.017960 -20.808100   0.002583  -0.014846 -32.721100  -3.673070   5.695230 -49.355700  -0.011366  -0.023615 -32.870900   0.001381  -0.015587 -28.557900  -3.985670   7.277600 -43.224800  -0.015565  -0.021671 -28.787700  -0.007323  -0.017594 -36.548600  -4.960520   6.653420 -55.255700  -0.013255  -0.038813 -36.800200   0.001290  -0.026157   5.318920   3.795770   5.134940  66.135400 -25.199100  38.046100  -1.608310 -28.183700 109.709000  64.779000 -34.748300  57.970800 -58.327300  36.155100  62.613900 -23.986200  -0.002046  -0.004162 -15.000000   0.001434  -0.004512  88.996200   5.000680   0.087478 101.689000  -0.000638  -0.001849  76.266200  -0.001797   0.008804  89.000000   0.009996  -0.002499 100.812000   0.003730  -0.004335  75.608800  -0.002849  -0.005393  88.996200  -5.000850  -0.087492 101.394000  -0.003107  -0.003307  76.045300  -0.002525   0.002423  88.980500 -10.001700  -0.179541 110.000000  -0.006707  -0.003234  80.000000   0.003931   0.003912   2.050310   7.610390   0.073492   0.126397   2.583530  14.422500  -2.583570  -4.509890  -1.059400   0.000000   0.000000   0.000000   0.601633   8.603450  -2.998750   2.095020   0.235708 -11.244500  -0.121535  -3.686310  11.150800  -0.000000   0.000000  -0.000000
 -2.443180  89.372800   0.194430  -0.362996  -4.746070  -6.005910   1.979060   4.697580  -1.900860   4.134640   9.323710  -3.983900   7.178500   2.209690  -0.278268  11.839100   4.270470  -8.117750  -4.147450   4.432880   7.544400 -78.528200  11.508600  -6.353410  -1.171310   3.409850 -17.070300  10.547600  -1.922290  -2.351460  42.333400  37.347200 -52.263400 -32.487700   0.025930   0.016585 -11.243800   0.013009  -0.000700 -36.311400  -0.826620   1.124660 -29.716000  -0.011574  -0.017041 -20.801200   0.002584  -0.014124 -32.706300  -3.672950   5.699210 -49.333700  -0.006737  -0.018904 -32.856300   0.001382  -0.012925 -28.553000  -3.970450   7.251730 -43.209700  -0.012220  -0.017254 -28.777700  -0.007324  -0.013960 -36.528100  -4.940030   6.631200 -55.221700  -0.011500  -0.038941 -36.777600   0.001561  -0.026045   5.373740   3.797580   5.212120  65.482700 -25.008200  37.816600  -1.864770 -28.423200 109.052000  64.273500 -34.408900  57.595700 -57.757800  35.793900  62.293100 -23.890300  -0.002062  -0.004193 -15.000000   0.001446  -0.004529  88.996200   5.000650   0.087479 102.170000  -0.000473  -0.001961  76.627100  -0.001828   0.008842  89.000000   0.010052  -0.002465 101.051000   0.003830  -0.004416  75.787900  -0.002935  -0.005392  88.996200  -5.000870  -0.087489 101.749000  -0.003045  -0.003450  76.311600  -0.002582   0.002495  88.980500 -10.001600  -0.179563 110.000000  -0.006676  -0.003253  80.000000   0.004021   0.003940   2.034450   7.614880   0.056562   0.128067   2.622890  14.446400  -2.575470  -4.547360  -1.038570  -0.000000   0.000000   0.000000   0.575328   8.630370  -3.023670   2.124850   0.217854 -11.210700  -0.152841  -3.685150  11.150100  -0.000000   0.000000  -0.000000
 -2.429560  89.378600   0.222559  -0.366244  -4.753830  -6.035150   1.975050   4.707530  -1.867690   4.124560   9.344850  -3.916940   7.185020   2.174910  -0.274139  11.849000   4.202940  -8.153280  -4.159690   4.411720   7.523370 -78.486700  11.587000  -6.391180  -1.196270   3.341560 -16.990600  10.550600  -1.868800  -2.359330  42.187900  37.064900 -51.940800 -32.411400   0.010589   0.009030 -11.205700   0.005258  -0.000699 -36.292800  -0.795420   1.082880 -29.700300  -0.002337  -0.004708 -20.790200   0.002583  -0.003712 -32.691400  -3.672840   5.702980 -49.311400  -0.000846  -0.003484 -32.841500   0.001381  -0.002392 -28.554400  -3.947070   7.210880 -43.178500   0.000226  -0.001321 -28.756900  -0.007324  -0.000727 -36.521100  -4.909170   6.594550 -55.206700  -0.002703  -0.017198 -36.767600   0.001671  -0.010887   5.433640   3.764420   5.261860  65.260300 -25.035400  37.731500  -2.072950 -28.571900 108.684000  64.332300 -34.210200  57.922100 -57.423500  35.604200  62.267500 -23.810900  -0.002076  -0.004212 -15.000000   0.001462  -0.004540  88.996200   5.000610   0.087482 102.127000  -0.005270  -0.002074  76.595200  -0.001864   0.008867  89.000000   0.010108  -0.002427 101.078000   0.003939  -0.004496  75.808700  -0.003022  -0.005391  88.996200  -5.000890  -0.087483 101.906000  -0.002990  -0.003595  76.429800  -0.002643   0.002566  88.980500 -10.001600  -0.179576 110.000000  -0.006648  -0.003269  80.000000   0.004115   0.003966   2.020010   7.623050   0.028656   0.129324   2.668260  14.481600  -2.566260  -4.589530  -1.012940  -0.000000   0.000000  -0.000000   0.558869   8.695580  -3.040040   2.148340   0.175564 -11.182400  -0.180391  -3.685570  11.155300  -0.000000   0.000000   0.000000
 -2.417620  89.384200   0.247492  -0.368652  -4.761670  -6.054320   1.968350   4.725300  -1.821700   4.107780   9.382410  -3.825090   7.193710   2.108900  -0.266152  11.860300   4.075080  -8.190030  -4.170080   4.368920   7.507920 -78.448100  11.630800  -6.405730  -1.212910   3.287530 -16.969400  10.553500  -1.855890  -2.374880  42.099000  36.890700 -51.727100 -32.359600  -0.004752   0.001475 -11.179800  -0.002492  -0.000696 -36.281600  -0.765173   1.042200 -29.690600   0.006314   0.006837 -20.783400   0.002582   0.006080 -32.683600  -3.672730   5.704870 -49.299700   0.002941   0.007912 -32.833700   0.001381   0.005858 -28.558600  -3.927280   7.174060 -43.157700   0.009803   0.010826 -28.743000  -0.007324   0.009392 -36.522700  -4.885950   6.560690 -55.204500   0.004590   0.004546 -36.766100   0.001688   0.004177   5.488900   3.707620   5.297250  65.201800 -25.057100  37.702200  -2.177720 -28.638200 108.554000  64.567200 -33.973900  58.630800 -57.098600  35.484900  62.366200 -23.738700  -0.002089  -0.004230 -15.000000   0.001477  -0.004550  88.996200   5.000580   0.087485 101.829000  -0.012418  -0.002190  76.371500  -0.001901   0.008876  89.000000   0.010162  -0.002391 101.082000   0.004050  -0.004577  75.811700  -0.003107  -0.005390  88.996200  -5.000910  -0.087479 101.947000  -0.002938  -0.003744  76.460500  -0.002704   0.002637  88.980500 -10.001500  -0.179592 110.000000  -0.006620  -0.003287  80.000000   0.004212   0.003991   2.004310   7.629910  -0.001936   0.132069   2.715150  14.507100  -2.556960  -4.631760  -0.986659  -0.000000   0.000000   0.000000   0.543025   8.740700  -3.055570   2.168140   0.146148 -11.169500  -0.200839  -3.688720  11.171500  -0.000000   0.000000   0.000000
